<?xml version="1.0" encoding="utf-8"?>
<!-- Generator: Adobe Illustrator 25.4.1, SVG Export Plug-In . SVG Version: 6.00 Build 0)  -->
<svg version="1.1" id="Layer_1" xmlns="http://www.w3.org/2000/svg" xmlns:xlink="http://www.w3.org/1999/xlink" x="0px" y="0px"
	 viewBox="0 0 1080 1080" style="enable-background:new 0 0 1080 1080;" xml:space="preserve">
<style type="text/css">
	.st0{fill:#FFFFFF;}
</style>
<g>
	<g>
		<rect x="962.06" y="302.59" class="st0" width="52.76" height="316.54"/>
		<polygon class="st0" points="909.3,724.65 856.54,724.65 803.79,724.65 803.79,777.41 803.79,830.17 803.79,882.92 751.03,882.92 
			751.03,935.68 803.79,935.68 803.79,988.44 856.54,988.44 856.54,882.92 856.54,830.17 856.54,777.41 909.3,777.41 962.06,777.41 
			962.06,724.65 962.06,619.14 909.3,619.14 		"/>
		<polygon class="st0" points="170.7,197.08 328.97,197.08 328.97,144.32 170.7,144.32 117.94,144.32 117.94,197.08 117.94,302.59 
			170.7,302.59 		"/>
		<rect x="65.18" y="302.59" class="st0" width="52.76" height="316.54"/>
		<polygon class="st0" points="909.3,197.08 909.3,302.59 962.06,302.59 962.06,197.08 962.06,144.32 909.3,144.32 751.03,144.32 
			751.03,197.08 		"/>
		<rect x="328.97" y="91.56" class="st0" width="422.06" height="52.76"/>
		<polygon class="st0" points="170.7,724.65 170.7,619.14 117.94,619.14 117.94,724.65 117.94,777.41 170.7,777.41 328.97,777.41 
			328.97,724.65 		"/>
		<rect x="328.97" y="777.41" class="st0" width="316.54" height="52.76"/>
		<polygon class="st0" points="698.27,830.17 645.51,830.17 645.51,882.92 698.27,882.92 751.03,882.92 751.03,830.17 		"/>
	</g>
	<g>
		<path class="st0" d="M460.62,484.03v-52.92h105.84v-52.92H407.7v-52.92h211.69v52.92h52.92v52.92h-52.92v52.92H460.62z
			 M460.62,536.95h105.84v52.92H460.62V536.95z"/>
	</g>
</g>
</svg>
