<svg id="Layer_1" data-name="Layer 1" xmlns="http://www.w3.org/2000/svg" viewBox="0 0 256 198.17"><defs><style>.cls-1{fill:#fff;}</style></defs><path class="cls-1" d="M216.86,45.1A208.25,208.25,0,0,0,164,28.5a155.26,155.26,0,0,0-6.76,14,193.42,193.42,0,0,0-58.54,0,150.69,150.69,0,0,0-6.84-14A207.57,207.57,0,0,0,39,45.14C5.62,95.65-3.44,144.9,1.09,193.46a211.25,211.25,0,0,0,64.77,33.19A161.19,161.19,0,0,0,79.74,203.8a136.21,136.21,0,0,1-21.85-10.63c1.83-1.36,3.62-2.78,5.35-4.24,42.13,19.7,87.89,19.7,129.51,0,1.76,1.46,3.55,2.88,5.36,4.24a136.66,136.66,0,0,1-21.89,10.65,160.47,160.47,0,0,0,13.88,22.85,210.84,210.84,0,0,0,64.81-33.21C260.23,137.17,245.83,88.37,216.86,45.1ZM85.47,163.59c-12.64,0-23-11.8-23-26.18s10.15-26.2,23-26.2,23.24,11.81,23,26.2C108.51,151.79,98.34,163.59,85.47,163.59Zm85.06,0c-12.65,0-23-11.8-23-26.18s10.15-26.2,23-26.2,23.23,11.81,23,26.2C193.54,151.79,183.39,163.59,170.53,163.59Z" transform="translate(0 -28.5)"/></svg>