<?xml version="1.0" encoding="utf-8"?>
<!-- Generator: Adobe Illustrator 26.0.1, SVG Export Plug-In . SVG Version: 6.00 Build 0)  -->
<svg version="1.1" id="Layer_1" xmlns="http://www.w3.org/2000/svg" xmlns:xlink="http://www.w3.org/1999/xlink" x="0px" y="0px"
	 viewBox="0 0 665.6 563.2" style="enable-background:new 0 0 665.6 563.2;" xml:space="preserve">
<style type="text/css">
	.st0{fill:#FFFFFF;}
</style>
<path class="st0" d="M502.3,172.1c-12.3-7.1-28.2-7.1-41.8,0l-95.8,54.8l-65.1,35.7l-95.8,54.8c-12.3,7.1-28.2,7.1-41.8,0L86,274.5
	c-12.3-7.1-20.9-20.2-20.9-34.5v-84.5c0-14.3,7.4-27.4,20.9-34.5l74.9-41.7c12.3-7.1,28.2-7.1,41.8,0l74.9,41.7
	c12.3,7.1,20.9,20.2,20.9,34.5v54.8l65.1-36.9v-54.8c0-14.3-7.4-27.4-20.9-34.5L203.9,5.4c-12.3-7.1-28.2-7.1-41.8,0L20.9,83.9
	C7.4,91.1,0,104.2,0,118.5v158.4c0,14.3,7.4,27.4,20.9,34.5L162.1,390c12.3,7.1,28.2,7.1,41.8,0l95.8-53.6l65.1-36.9l95.8-53.6
	c12.3-7.1,28.2-7.1,41.8,0l74.9,41.7c12.3,7.1,20.9,20.2,20.9,34.5v84.5c0,14.3-7.4,27.4-20.9,34.5L502.3,484
	c-12.3,7.1-28.2,7.1-41.8,0l-74.9-41.7c-12.3-7.1-20.9-20.2-20.9-34.5V353L299.6,390v54.8c0,14.3,7.4,27.4,20.9,34.5l141.2,78.6
	c12.3,7.1,28.2,7.1,41.8,0l141.2-78.6c12.3-7.1,20.9-20.2,20.9-34.5V286.4c0-14.3-7.4-27.4-20.9-34.5L502.3,172.1z"/>
</svg>
