<?xml version="1.0" encoding="utf-8"?>
<!-- Generator: Adobe Illustrator 25.4.1, SVG Export Plug-In . SVG Version: 6.00 Build 0)  -->
<svg version="1.1" id="Layer_1" xmlns="http://www.w3.org/2000/svg" xmlns:xlink="http://www.w3.org/1999/xlink" x="0px" y="0px"
	 viewBox="0 0 1080 1080" style="enable-background:new 0 0 1080 1080;" xml:space="preserve">
<style type="text/css">
	.st0{fill:#FFFFFF;}
</style>
<g>
	<g>
		<rect x="673.66" y="380.83" class="st0" width="50.63" height="50.64"/>
		<rect x="774.51" y="380.83" class="st0" width="50.63" height="50.64"/>
		<rect x="774.51" y="813.64" class="st0" width="50.63" height="215.02"/>
		<polygon class="st0" points="673.66,763.01 673.66,1028.66 724.29,1028.66 724.29,763.01 926.38,763.01 926.38,279.59 
			623.03,279.59 623.03,330.2 875.77,330.2 875.77,712.37 623.03,712.37 623.03,330.2 572.41,330.2 572.41,763.01 572.51,763.01 		
			"/>
		<path class="st0" d="M673.46,51.34v151.88h151.87V51.34l0,0H673.46L673.46,51.34z M724.07,101.96h50.65v50.63h-50.65V101.96z"/>
	</g>
	<g>
		<rect x="406.45" y="813.64" class="st0" width="50.62" height="215.02"/>
		<polygon class="st0" points="204.24,763.01 204.24,1028.66 254.87,1028.66 254.87,763.01 305.29,763.01 305.29,813.64 
			355.92,813.64 355.92,763.01 305.4,763.01 305.4,712.37 204.24,712.37 204.24,330.2 153.62,330.2 153.62,763.01 153.71,763.01 		
			"/>
		<polygon class="st0" points="456.98,712.37 355.92,712.37 355.92,763.01 507.6,763.01 507.6,279.59 204.24,279.59 204.24,330.2 
			456.98,330.2 		"/>
		<path class="st0" d="M254.68,51.34v151.88h151.86V51.34l0,0H254.68L254.68,51.34z M305.29,101.96h50.65v50.63h-50.65V101.96z"/>
	</g>
</g>
</svg>
