<?xml version="1.0" encoding="utf-8"?>
<!-- Generator: Adobe Illustrator 25.4.1, SVG Export Plug-In . SVG Version: 6.00 Build 0)  -->
<svg version="1.1" id="Layer_1" xmlns="http://www.w3.org/2000/svg" xmlns:xlink="http://www.w3.org/1999/xlink" x="0px" y="0px"
	 viewBox="0 0 1080 1080" style="enable-background:new 0 0 1080 1080;" xml:space="preserve">
<style type="text/css">
	.st0{fill:#FFFFFF;}
</style>
<g>
	<rect x="160.56" y="881.5" class="st0" width="75.89" height="75.89"/>
	<rect x="160.56" y="957.39" class="st0" width="75.89" height="75.89"/>
	<rect x="160.56" y="729.72" class="st0" width="75.89" height="75.89"/>
	<rect x="160.56" y="805.61" class="st0" width="75.89" height="75.89"/>
	<rect x="160.56" y="577.94" class="st0" width="75.89" height="75.89"/>
	<rect x="160.56" y="653.83" class="st0" width="75.89" height="75.89"/>
	<rect x="160.56" y="426.17" class="st0" width="75.89" height="75.89"/>
	<rect x="160.56" y="350.28" class="st0" width="75.89" height="75.89"/>
	<rect x="160.56" y="502.06" class="st0" width="75.89" height="75.89"/>
	<rect x="843.55" y="881.5" class="st0" width="75.89" height="75.89"/>
	<rect x="843.55" y="957.39" class="st0" width="75.89" height="75.89"/>
	<rect x="843.55" y="729.72" class="st0" width="75.89" height="75.89"/>
	<rect x="843.55" y="805.61" class="st0" width="75.89" height="75.89"/>
	<rect x="843.55" y="577.94" class="st0" width="75.89" height="75.89"/>
	<rect x="843.55" y="653.83" class="st0" width="75.89" height="75.89"/>
	<rect x="843.55" y="426.17" class="st0" width="75.89" height="75.89"/>
	<rect x="843.55" y="350.28" class="st0" width="75.89" height="75.89"/>
	<rect x="843.55" y="502.06" class="st0" width="75.89" height="75.89"/>
	<rect x="691.78" y="198.5" class="st0" width="75.89" height="75.89"/>
	<rect x="691.78" y="274.39" class="st0" width="75.89" height="75.89"/>
	<rect x="691.78" y="122.61" class="st0" width="75.89" height="75.89"/>
	<rect x="312.33" y="198.5" class="st0" width="75.89" height="75.89"/>
	<rect x="312.33" y="274.39" class="st0" width="75.89" height="75.89"/>
	<rect x="312.33" y="122.61" class="st0" width="75.89" height="75.89"/>
	
		<rect x="464.11" y="46.72" transform="matrix(-1.836970e-16 1 -1 -1.836970e-16 586.7234 -417.3879)" class="st0" width="75.89" height="75.89"/>
	
		<rect x="388.22" y="46.72" transform="matrix(-1.836970e-16 1 -1 -1.836970e-16 510.8347 -341.4992)" class="st0" width="75.89" height="75.89"/>
	
		<rect x="540" y="46.72" transform="matrix(-1.836970e-16 1 -1 -1.836970e-16 662.6121 -493.2766)" class="st0" width="75.89" height="75.89"/>
	
		<rect x="615.89" y="46.72" transform="matrix(-1.836970e-16 1 -1 -1.836970e-16 738.5008 -569.1653)" class="st0" width="75.89" height="75.89"/>
	
		<rect x="236.45" y="957.39" transform="matrix(-1.836970e-16 1 -1 -1.836970e-16 1269.7218 720.9427)" class="st0" width="75.89" height="75.89"/>
	
		<rect x="388.22" y="957.39" transform="matrix(-1.836970e-16 1 -1 -1.836970e-16 1421.4991 569.1653)" class="st0" width="75.89" height="75.89"/>
	
		<rect x="312.33" y="957.39" transform="matrix(-1.836970e-16 1 -1 -1.836970e-16 1345.6105 645.054)" class="st0" width="75.89" height="75.89"/>
	
		<rect x="540" y="957.39" transform="matrix(-1.836970e-16 1 -1 -1.836970e-16 1573.2766 417.3879)" class="st0" width="75.89" height="75.89"/>
	
		<rect x="464.11" y="957.39" transform="matrix(-1.836970e-16 1 -1 -1.836970e-16 1497.3879 493.2766)" class="st0" width="75.89" height="75.89"/>
	
		<rect x="691.78" y="957.39" transform="matrix(-1.836970e-16 1 -1 -1.836970e-16 1725.054 265.6105)" class="st0" width="75.89" height="75.89"/>
	
		<rect x="767.67" y="957.39" transform="matrix(-1.836970e-16 1 -1 -1.836970e-16 1800.9427 189.7218)" class="st0" width="75.89" height="75.89"/>
	
		<rect x="615.89" y="957.39" transform="matrix(-1.836970e-16 1 -1 -1.836970e-16 1649.1653 341.4992)" class="st0" width="75.89" height="75.89"/>
	
		<rect x="236.45" y="350.28" transform="matrix(-1.836970e-16 1 -1 -1.836970e-16 662.6121 113.8331)" class="st0" width="75.89" height="75.89"/>
	
		<rect x="388.22" y="350.28" transform="matrix(-1.836970e-16 1 -1 -1.836970e-16 814.3895 -37.9444)" class="st0" width="75.89" height="75.89"/>
	
		<rect x="312.33" y="350.28" transform="matrix(-1.836970e-16 1 -1 -1.836970e-16 738.5008 37.9444)" class="st0" width="75.89" height="75.89"/>
	
		<rect x="540" y="350.28" transform="matrix(-1.836970e-16 1 -1 -1.836970e-16 966.1669 -189.7218)" class="st0" width="75.89" height="75.89"/>
	
		<rect x="464.11" y="350.28" transform="matrix(-1.836970e-16 1 -1 -1.836970e-16 890.2783 -113.8331)" class="st0" width="75.89" height="75.89"/>
	
		<rect x="505.69" y="647.29" transform="matrix(-1 -3.267946e-07 3.267946e-07 -1 1087.2697 1370.473)" class="st0" width="75.89" height="75.89"/>
	
		<rect x="505.69" y="571.4" transform="matrix(-1 -3.267946e-07 3.267946e-07 -1 1087.2698 1218.6957)" class="st0" width="75.89" height="75.89"/>
	
		<rect x="505.69" y="723.18" transform="matrix(-1 -3.267969e-07 3.267969e-07 -1 1087.2697 1522.2505)" class="st0" width="75.89" height="75.89"/>
	
		<rect x="691.78" y="350.28" transform="matrix(-1.836970e-16 1 -1 -1.836970e-16 1117.9443 -341.4992)" class="st0" width="75.89" height="75.89"/>
	
		<rect x="767.67" y="350.28" transform="matrix(-1.836970e-16 1 -1 -1.836970e-16 1193.833 -417.3879)" class="st0" width="75.89" height="75.89"/>
	
		<rect x="615.89" y="350.28" transform="matrix(-1.836970e-16 1 -1 -1.836970e-16 1042.0557 -265.6105)" class="st0" width="75.89" height="75.89"/>
</g>
</svg>
